<!DOCTYPE svg PUBLIC "-//W3C//DTD SVG 1.1//EN" "http://www.w3.org/Graphics/SVG/1.1/DTD/svg11.dtd">

<!-- Uploaded to: SVG Repo, www.svgrepo.com, Transformed by: SVG Repo Mixer Tools -->
<svg version="1.1" id="Layer_1" xmlns="http://www.w3.org/2000/svg" xmlns:xlink="http://www.w3.org/1999/xlink" viewBox="0 0 506.653 506.653" xml:space="preserve" width="256px" height="256px" fill="#000000">

<g id="SVGRepo_bgCarrier" stroke-width="0"/>

<g id="SVGRepo_tracerCarrier" stroke-linecap="round" stroke-linejoin="round"/>

<g id="SVGRepo_iconCarrier"> <path style="fill:#DF5C4E;" d="M482.8,266.365l-324,187.6h300.4c19.6,0,34.4-16,34.4-35.6v-125.2 C494,282.765,490.8,273.165,482.8,266.365z"/> <path style="fill:#EF934A;" d="M500,329.165l-32.4-120.8c-4-15.6-18.4-26.4-34.4-26.4c-1.6,0-3.2,0-4.8,0.4l-245.2,268.8l292-78.4 c9.6-2.4,17.2-8.8,22-17.2C501.2,347.165,502.4,337.965,500,329.165z"/> <path style="fill:#FFC52F;" d="M462.8,245.965l-62.4-108.4c-6.4-10.8-18-17.6-30.8-17.6c-2.8,0-5.6,0.4-8.4,0.8 c-1.6,0.4-3.2,0.8-4.8,1.6l-168,323.6l261.6-151.6C466.8,284.765,472.8,262.765,462.8,245.965z"/> <path style="fill:#4BB19B;" d="M406.4,174.765l-88.8-88.4c-6.8-6.8-15.6-10.4-25.2-10.4c-6.8,0-13.6,2-19.2,5.6l-80.8,357.2 l213.6-213.6C420,211.165,420,188.765,406.4,174.765z"/> <path style="fill:#33A5D2;" d="M336,119.965l-108.8-62.8c-5.2-3.2-11.6-4.8-17.6-4.8c-10.4,0-20.8,4.8-27.2,12.8l15.6,364.8 l151.2-261.6C358.8,151.565,352.8,129.565,336,119.965z"/> <path style="fill:#7D8B95;" d="M252,85.565l-120.8-32.4c-2.8-0.8-6-1.2-9.2-1.2c-13.6,0-26,8-32,20l109.2,348.8l78-291.6 C282.4,110.365,271.2,90.765,252,85.565z"/> <path style="fill:#CCCCCC;" d="M165.2,399.965c-2-0.8-5.6,0-7.6,0c-7.6,0-12.4,8.4-12.4,16s6.4,14,14,14s16-4,16-11.6 c0-1.6,0-10.4-0.8-11.6C172.8,400.765,165.2,400.365,165.2,399.965z"/> <path style="fill:#AEB1B4;" d="M194,109.165c0-19.6-14.8-35.6-34.8-35.6H42.4c-19.6,0-36.4,16-36.4,35.6v308.8 c0,19.6,16.8,35.6,36.4,35.6h116.8c19.6,0,34.8-16,34.8-35.6C194,417.965,194,109.165,194,109.165z M159.2,434.365c-10,0-18-8-18-18 s8-18,18-18c2.4,0,4.8,0.4,7.2,1.6c0.4,0,7.2,2.8,10,10.8c0.8,2,0.8,4,0.8,6C177.2,425.965,169.2,434.365,159.2,434.365z"/> <rect x="50" y="73.565" style="fill:#E8E3E3;" width="20" height="380"/> <path d="M162,459.565H44.8c-24,0-44.8-19.2-44.8-41.2v-308.8c0-22,21.2-42,44.8-42H162c22.4,0,39.6,18.4,39.6,42c0,2.4-1.6,4-4,4 s-4-1.6-4-4c0-19.2-13.6-34-31.6-34H44.8c-19.2,0-36.8,16.4-36.8,34v308.8c0,17.6,17.2,33.2,36.8,33.2H162c17.6,0,30-13.6,30-33.2 v-240.8c0-2.4,1.6-4,4-4s4,1.6,4,4v240.8C200,442.365,184,459.565,162,459.565z"/> <path d="M159.2,436.365c-11.2,0-20-8.8-20-20s8.8-20,20-20c2.8,0,5.2,0.4,8,1.6c2,0.8,3.2,3.2,2.4,5.2s-3.2,3.2-5.2,2.4 c-1.6-0.8-3.2-0.8-4.8-0.8c-6.8,0-12,5.2-12,12s5.2,12,12,12s12-5.2,12-12c0-1.6-0.4-2.8-0.8-4.4c-0.4-2,0.8-4.4,2.8-4.8 s4.4,0.8,4.8,2.8c0.4,1.6,0.8,3.6,0.8,6C179.2,427.565,170.4,436.365,159.2,436.365z"/> <path d="M199.2,432.365c-0.4,0-0.8,0-1.2,0c-2-0.4-3.2-2.8-2.8-4.8l64.8-241.2c0.4-2,2.8-3.2,4.8-2.8c2,0.4,3.2,2.8,2.8,4.8 l-64.8,241.2C202.4,431.165,200.8,432.365,199.2,432.365z"/> <path d="M278.8,133.965c-0.4,0-0.8,0-1.2,0c-2-0.4-3.2-2.8-2.8-4.8c2.4-8.8,1.2-17.6-3.2-25.6c-4.4-7.6-11.6-13.2-20.4-15.6 l-120.8-32.4c-16.4-4.4-32.8,2.4-39.2,16.8c-0.8,2-3.2,2.8-5.2,2s-2.8-3.2-2-5.2c8.4-17.6,28.4-26.4,48.8-20.8l120.8,32.4 c10.8,2.8,19.6,9.6,25.2,19.2c5.6,9.6,6.8,20.8,4,31.6C282,132.765,280.4,133.965,278.8,133.965z"/> <path d="M196,441.165c-0.8,0-1.2,0-2-0.4c-2-1.2-2.4-3.6-1.6-5.6l127.2-220.4c1.2-2,3.6-2.4,5.6-1.6s2.4,3.6,1.6,5.6l-127.2,220.4 C198.8,440.365,197.2,441.165,196,441.165z"/> <path d="M343.6,185.565c-0.8,0-1.6,0-2-0.4c-2-1.2-2.4-3.6-1.2-5.6l3.6-6l3.2-6c4.4-7.6,5.6-16.8,3.6-25.2c-2.4-8.8-8-16-15.6-20.4 l-108.4-62.8c-14-8.4-32.8-4.8-42.8,8c-1.2,1.6-4,2-5.6,0.8s-2-4-0.8-5.6c12.8-16,35.6-20.4,53.2-9.6l108.4,62.8 c9.6,5.6,16.4,14.4,19.2,25.2c2.8,10.8,1.2,22-4.4,31.2l-3.2,6l-3.6,6C346.4,184.765,344.8,185.565,343.6,185.565z"/> <path d="M189.2,449.165c-1.2,0-2-0.4-2.8-1.2c-1.6-1.6-1.6-4,0-5.6l186-186c1.6-1.6,4-1.6,5.6,0s1.6,4,0,5.6l-186,186 C191.2,448.765,190.4,449.165,189.2,449.165z"/> <path d="M400.4,237.965c-1.2,0-2-0.4-2.8-1.2c-1.6-1.6-1.6-4,0-5.6l7.2-7.2c13.2-13.2,13.2-34.4,0-47.6l-88.4-88.8 c-11.2-11.2-29.2-12.8-42.4-4c-2,1.2-4.4,0.8-5.6-1.2c-1.2-2-0.8-4.4,1.2-5.6c16.4-11.2,38.8-9.2,52.8,4.8l36.8,36.8l51.6,52 c16.4,16.4,16.4,42.8,0,58.8l-7.2,7.2C402.4,237.565,401.6,237.965,400.4,237.965z"/> <path d="M183.2,454.765c-1.2,0-2.8-0.8-3.6-2c-1.2-2-0.4-4.4,1.6-5.6l237.2-136.8c2-1.2,4.4-0.4,5.6,1.6c1.2,2,0.4,4.4-1.6,5.6 l-237.2,136.8C184.4,454.765,184,454.765,183.2,454.765z"/> <path d="M441.2,305.565c-1.6,0-2.8-0.8-3.6-2c-1.2-2-0.4-4.4,1.6-5.6l10-5.6c15.6-9.2,21.2-30,12-45.6l-62.8-108.4 c-8-12.8-23.2-19.2-37.2-15.6c-1.2,0.4-2.4,0.8-3.6,1.2l-1.2,0.4c-2,0.8-4.4,0-5.2-2.4s0-4.4,2.4-5.2l1.2-0.4 c1.6-0.8,3.2-1.2,5.2-1.6c17.2-4.4,36,3.6,46,19.6l62.8,108.4c11.2,19.6,4.8,45.2-15.2,56.8l-10,5.6 C442.4,305.565,442,305.565,441.2,305.565z"/> <path d="M176.4,457.965c-1.6,0-3.2-1.2-4-2.8c-0.4-2,0.8-4.4,2.8-4.8l298.4-80c8.8-2,16-7.6,20.8-16c4.4-8,5.6-16.8,3.2-24.8 l-32.4-120.8c-4.4-16-20.8-26.8-37.6-24.4c-2,0.4-4.4-1.2-4.4-3.2c-0.4-2,1.2-4.4,3.2-4.4c21.2-3.2,41.2,10,46.4,30l32.4,120.8 c2.8,10.4,1.6,21.2-4,31.2c-5.6,10.4-14.8,17.2-25.6,20l-298.4,80C177.2,457.965,176.8,457.965,176.4,457.965z"/> <path d="M460,459.965l-309.6-0.4c-2.4,0-4-1.6-4-4s1.6-4,4-4l0,0l309.6,0.4c18.4,0,32.8-14.8,32.8-33.6l2.8-64.8c0-2.4,2-4,4-4 c2.4,0,4,2,4,4l-2.8,64.8C500.8,441.565,482.8,459.965,460,459.965z"/> <path d="M500,317.565c-2.4,0-4-1.6-4-4v-20c0-10.8-5.2-22-12.8-28c-1.6-1.2-2-4-0.8-5.6s4-2,5.6-0.8c9.6,7.6,16,20.8,16,34.4v20 C504,315.965,502.4,317.565,500,317.565z"/> </g>

</svg>