<svg version="1.1" xmlns="http://www.w3.org/2000/svg" viewBox="0 0 51.60425540022868 32.629567558762346" width="103.20851080045736" height="65.25913511752469">
  <!-- svg-source:excalidraw -->
  
 
  <rect x="0" y="0" width="51.60425540022868" height="32.629567558762346" fill="#ffffff"></rect><g transform="translate(10.512555185643919 10.391349062522295) rotate(0 15.14640496379576 3.2431218397493353)"><text x="0" y="5.189105103987487" font-family="Helvetica, Segoe UI Emoji" font-size="5.640211895216206px" fill="#ced4da" text-anchor="start" style="white-space: pre;" direction="ltr" dominant-baseline="alphabetic">SPACEBAR</text></g><g transform="translate(10.186257811573398 10) rotate(0 15.14640496379576 3.2431218397493353)"><text x="0" y="5.189105103987487" font-family="Helvetica, Segoe UI Emoji" font-size="5.640211895216206px" fill="#1e1e1e" text-anchor="start" style="white-space: pre;" direction="ltr" dominant-baseline="alphabetic">SPACEBAR</text></g><g stroke-linecap="round" transform="translate(10.272376437684784 20.74709586214624) rotate(0 15.66593948127192 0.9412358483080538)"><path d="M0.47 0 C10.04 0, 19.62 0, 30.86 0 C31.18 0, 31.33 0.16, 31.33 0.47 C31.33 0.67, 31.33 0.88, 31.33 1.41 C31.33 1.73, 31.18 1.88, 30.86 1.88 C22.35 1.88, 13.84 1.88, 0.47 1.88 C0.16 1.88, 0 1.73, 0 1.41 C0 1.17, 0 0.94, 0 0.47 C0 0.16, 0.16 0, 0.47 0" stroke="none" stroke-width="0" fill="#ced4da"></path><path d="M0.47 0 C10.2 0, 19.92 0, 30.86 0 M0.47 0 C11.17 0, 21.88 0, 30.86 0 M30.86 0 C31.18 0, 31.33 0.16, 31.33 0.47 M30.86 0 C31.18 0, 31.33 0.16, 31.33 0.47 M31.33 0.47 C31.33 0.84, 31.33 1.21, 31.33 1.41 M31.33 0.47 C31.33 0.79, 31.33 1.1, 31.33 1.41 M31.33 1.41 C31.33 1.73, 31.18 1.88, 30.86 1.88 M31.33 1.41 C31.33 1.73, 31.18 1.88, 30.86 1.88 M30.86 1.88 C19.31 1.88, 7.76 1.88, 0.47 1.88 M30.86 1.88 C21.8 1.88, 12.75 1.88, 0.47 1.88 M0.47 1.88 C0.16 1.88, 0 1.73, 0 1.41 M0.47 1.88 C0.16 1.88, 0 1.73, 0 1.41 M0 1.41 C0 1.21, 0 1.01, 0 0.47 M0 1.41 C0 1.22, 0 1.02, 0 0.47 M0 0.47 C0 0.16, 0.16 0, 0.47 0 M0 0.47 C0 0.16, 0.16 0, 0.47 0" stroke="#ced4da" stroke-width="1" fill="none"></path></g><g stroke-linecap="round" transform="translate(39.76174672802017 17.010690437774997) rotate(0 0.9212543361042549 2.7990626611564835)"><path d="M0.46 0 C0.67 0, 0.87 0, 1.38 0 C1.69 0, 1.84 0.15, 1.84 0.46 C1.84 2.01, 1.84 3.56, 1.84 5.14 C1.84 5.44, 1.69 5.6, 1.38 5.6 C1.13 5.6, 0.87 5.6, 0.46 5.6 C0.15 5.6, 0 5.44, 0 5.14 C0 4.03, 0 2.92, 0 0.46 C0 0.15, 0.15 0, 0.46 0" stroke="none" stroke-width="0" fill="#ced4da"></path><path d="M0.46 0 C0.66 0, 0.87 0, 1.38 0 M0.46 0 C0.78 0, 1.1 0, 1.38 0 M1.38 0 C1.69 0, 1.84 0.15, 1.84 0.46 M1.38 0 C1.69 0, 1.84 0.15, 1.84 0.46 M1.84 0.46 C1.84 2.32, 1.84 4.19, 1.84 5.14 M1.84 0.46 C1.84 1.69, 1.84 2.92, 1.84 5.14 M1.84 5.14 C1.84 5.44, 1.69 5.6, 1.38 5.6 M1.84 5.14 C1.84 5.44, 1.69 5.6, 1.38 5.6 M1.38 5.6 C1.11 5.6, 0.84 5.6, 0.46 5.6 M1.38 5.6 C1.14 5.6, 0.89 5.6, 0.46 5.6 M0.46 5.6 C0.15 5.6, 0 5.44, 0 5.14 M0.46 5.6 C0.15 5.6, 0 5.44, 0 5.14 M0 5.14 C0 4.04, 0 2.94, 0 0.46 M0 5.14 C0 3.81, 0 2.49, 0 0.46 M0 0.46 C0 0.15, 0.15 0, 0.46 0 M0 0.46 C0 0.15, 0.15 0, 0.46 0" stroke="#ced4da" stroke-width="1" fill="none"></path></g><g stroke-linecap="round" transform="translate(10.272376437684784 17.031442236449152) rotate(0 0.9212543361042549 2.7990626611564835)"><path d="M0.46 0 C0.76 0, 1.05 0, 1.38 0 C1.69 0, 1.84 0.15, 1.84 0.46 C1.84 2.32, 1.84 4.18, 1.84 5.14 C1.84 5.44, 1.69 5.6, 1.38 5.6 C1.17 5.6, 0.96 5.6, 0.46 5.6 C0.15 5.6, 0 5.44, 0 5.14 C0 3.81, 0 2.48, 0 0.46 C0 0.15, 0.15 0, 0.46 0" stroke="none" stroke-width="0" fill="#ced4da"></path><path d="M0.46 0 C0.68 0, 0.9 0, 1.38 0 M0.46 0 C0.7 0, 0.94 0, 1.38 0 M1.38 0 C1.69 0, 1.84 0.15, 1.84 0.46 M1.38 0 C1.69 0, 1.84 0.15, 1.84 0.46 M1.84 0.46 C1.84 1.64, 1.84 2.82, 1.84 5.14 M1.84 0.46 C1.84 2.3, 1.84 4.14, 1.84 5.14 M1.84 5.14 C1.84 5.44, 1.69 5.6, 1.38 5.6 M1.84 5.14 C1.84 5.44, 1.69 5.6, 1.38 5.6 M1.38 5.6 C1.13 5.6, 0.89 5.6, 0.46 5.6 M1.38 5.6 C1.08 5.6, 0.78 5.6, 0.46 5.6 M0.46 5.6 C0.15 5.6, 0 5.44, 0 5.14 M0.46 5.6 C0.15 5.6, 0 5.44, 0 5.14 M0 5.14 C0 3.69, 0 2.24, 0 0.46 M0 5.14 C0 4.16, 0 3.19, 0 0.46 M0 0.46 C0 0.15, 0.15 0, 0.46 0 M0 0.46 C0 0.15, 0.15 0, 0.46 0" stroke="#ced4da" stroke-width="1" fill="none"></path></g><g stroke-linecap="round" transform="translate(10 20.237009565987478) rotate(0 15.66593948127192 0.9412358483080538)"><path d="M0.47 0 C8.08 0, 15.68 0, 30.86 0 C31.18 0, 31.33 0.16, 31.33 0.47 C31.33 0.71, 31.33 0.95, 31.33 1.41 C31.33 1.73, 31.18 1.88, 30.86 1.88 C20.13 1.88, 9.4 1.88, 0.47 1.88 C0.16 1.88, 0 1.73, 0 1.41 C0 1.05, 0 0.69, 0 0.47 C0 0.16, 0.16 0, 0.47 0" stroke="none" stroke-width="0" fill="#1e1e1e"></path><path d="M0.47 0 C7.5 0, 14.53 0, 30.86 0 M0.47 0 C10.27 0, 20.07 0, 30.86 0 M30.86 0 C31.18 0, 31.33 0.16, 31.33 0.47 M30.86 0 C31.18 0, 31.33 0.16, 31.33 0.47 M31.33 0.47 C31.33 0.73, 31.33 0.99, 31.33 1.41 M31.33 0.47 C31.33 0.71, 31.33 0.94, 31.33 1.41 M31.33 1.41 C31.33 1.73, 31.18 1.88, 30.86 1.88 M31.33 1.41 C31.33 1.73, 31.18 1.88, 30.86 1.88 M30.86 1.88 C21.44 1.88, 12.03 1.88, 0.47 1.88 M30.86 1.88 C21.06 1.88, 11.26 1.88, 0.47 1.88 M0.47 1.88 C0.16 1.88, 0 1.73, 0 1.41 M0.47 1.88 C0.16 1.88, 0 1.73, 0 1.41 M0 1.41 C0 1.15, 0 0.89, 0 0.47 M0 1.41 C0 1.18, 0 0.96, 0 0.47 M0 0.47 C0 0.16, 0.16 0, 0.47 0 M0 0.47 C0 0.16, 0.16 0, 0.47 0" stroke="#1e1e1e" stroke-width="1" fill="none"></path></g><g stroke-linecap="round" transform="translate(39.48937029033533 16.500604141616463) rotate(0 0.9212543361042549 2.7990626611564835)"><path d="M0.46 0 C0.71 0, 0.96 0, 1.38 0 C1.69 0, 1.84 0.15, 1.84 0.46 C1.84 2.12, 1.84 3.78, 1.84 5.14 C1.84 5.44, 1.69 5.6, 1.38 5.6 C1.06 5.6, 0.74 5.6, 0.46 5.6 C0.15 5.6, 0 5.44, 0 5.14 C0 3.94, 0 2.75, 0 0.46 C0 0.15, 0.15 0, 0.46 0" stroke="none" stroke-width="0" fill="#1e1e1e"></path><path d="M0.46 0 C0.82 0, 1.17 0, 1.38 0 M0.46 0 C0.81 0, 1.15 0, 1.38 0 M1.38 0 C1.69 0, 1.84 0.15, 1.84 0.46 M1.38 0 C1.69 0, 1.84 0.15, 1.84 0.46 M1.84 0.46 C1.84 1.49, 1.84 2.52, 1.84 5.14 M1.84 0.46 C1.84 1.61, 1.84 2.75, 1.84 5.14 M1.84 5.14 C1.84 5.44, 1.69 5.6, 1.38 5.6 M1.84 5.14 C1.84 5.44, 1.69 5.6, 1.38 5.6 M1.38 5.6 C1.06 5.6, 0.73 5.6, 0.46 5.6 M1.38 5.6 C1.06 5.6, 0.73 5.6, 0.46 5.6 M0.46 5.6 C0.15 5.6, 0 5.44, 0 5.14 M0.46 5.6 C0.15 5.6, 0 5.44, 0 5.14 M0 5.14 C0 3.48, 0 1.82, 0 0.46 M0 5.14 C0 3.65, 0 2.16, 0 0.46 M0 0.46 C0 0.15, 0.15 0, 0.46 0 M0 0.46 C0 0.15, 0.15 0, 0.46 0" stroke="#1e1e1e" stroke-width="1" fill="none"></path></g><g stroke-linecap="round" transform="translate(10 16.52135594029062) rotate(0 0.9212543361042549 2.7990626611564835)"><path d="M0.46 0 C0.81 0, 1.16 0, 1.38 0 C1.69 0, 1.84 0.15, 1.84 0.46 C1.84 2.27, 1.84 4.08, 1.84 5.14 C1.84 5.44, 1.69 5.6, 1.38 5.6 C1.19 5.6, 1 5.6, 0.46 5.6 C0.15 5.6, 0 5.44, 0 5.14 C0 3.54, 0 1.94, 0 0.46 C0 0.15, 0.15 0, 0.46 0" stroke="none" stroke-width="0" fill="#1e1e1e"></path><path d="M0.46 0 C0.75 0, 1.04 0, 1.38 0 M0.46 0 C0.67 0, 0.88 0, 1.38 0 M1.38 0 C1.69 0, 1.84 0.15, 1.84 0.46 M1.38 0 C1.69 0, 1.84 0.15, 1.84 0.46 M1.84 0.46 C1.84 1.4, 1.84 2.34, 1.84 5.14 M1.84 0.46 C1.84 1.66, 1.84 2.85, 1.84 5.14 M1.84 5.14 C1.84 5.44, 1.69 5.6, 1.38 5.6 M1.84 5.14 C1.84 5.44, 1.69 5.6, 1.38 5.6 M1.38 5.6 C1.16 5.6, 0.93 5.6, 0.46 5.6 M1.38 5.6 C1.05 5.6, 0.73 5.6, 0.46 5.6 M0.46 5.6 C0.15 5.6, 0 5.44, 0 5.14 M0.46 5.6 C0.15 5.6, 0 5.44, 0 5.14 M0 5.14 C0 3.83, 0 2.51, 0 0.46 M0 5.14 C0 3.5, 0 1.87, 0 0.46 M0 0.46 C0 0.15, 0.15 0, 0.46 0 M0 0.46 C0 0.15, 0.15 0, 0.46 0" stroke="#1e1e1e" stroke-width="1" fill="none"></path></g></svg>